<?xml version="1.0" encoding="utf-8"?>
<!-- Generator: Adobe Illustrator 25.2.0, SVG Export Plug-In . SVG Version: 6.00 Build 0)  -->
<svg version="1.1" id="Layer_1" xmlns="http://www.w3.org/2000/svg" xmlns:xlink="http://www.w3.org/1999/xlink" x="0px" y="0px"
	 viewBox="0 0 64 64" style="enable-background:new 0 0 64 64;" xml:space="preserve">
<path d="M45,26.9c-3.8-4.2-7.6-8.4-11.4-12.6c-0.7-0.8-2.1-0.8-2.8,0c-3.9,4.2-7.8,8.4-11.7,12.6c-1.8,1.9,1.1,4.7,2.8,2.8
	c2.8-3,5.6-6,8.4-9c0,7.9,0,15.8,0,23.6c0,1.3,0,2.7,0,4c0,2.6,4,2.6,4,0c0-9.1,0-18.2,0-27.4c2.6,2.9,5.3,5.8,7.9,8.7
	C43.9,31.6,46.7,28.8,45,26.9z"/>
</svg>
